PathFileType  4	(X/Y/Z) C:\Users\antoi\Documents\MyRepositories\mobilecap\ResultsAnalysis
DataRate	CameraRate	NumFrames	NumMarkers	Units	OrigDataRate	OrigDataStartFrame	OrigNumFrames
100.0	100.0	6	51	mm	100.0	18	138
Frame#	Time	r_knee			r_shank_antsup			r_ankle			r_calc			r_5meta			r_toe			L_knee			L_shank_antsup			L_ankle			L_calc			L_5meta			L_toe			r_sh2			r_sh3			r_sh4			L_sh2			L_sh3			r_thigh1			r_thigh2			r_thigh3			r_thigh4			r_thigh5			L_thigh1			L_thigh2			L_thigh3			L_thigh4			r.ASIS			r.PSIS			L.ASIS			L.PSIS			C7			R_Shoulder			L_Shoulder			R_Sternum			L_Sternum			R_humerus			R_elbow_med			R_elbow_lat			R_forearm			R_wrist_radius			R_wrist_ulna			L_humerus			L_elbow_med			L_elbow_lat			L_forearm			L_wrist_radius			L_wrist_ulna			R_HJC			L_HJC			R_HJC_reg			L_HJC_reg			
		X1	Y1	Z1	X2	Y2	Z2	X3	Y3	Z3	X4	Y4	Z4	X5	Y5	Z5	X6	Y6	Z6	X7	Y7	Z7	X8	Y8	Z8	X9	Y9	Z9	X10	Y10	Z10	X11	Y11	Z11	X12	Y12	Z12	X13	Y13	Z13	X14	Y14	Z14	X15	Y15	Z15	X16	Y16	Z16	X17	Y17	Z17	X18	Y18	Z18	X19	Y19	Z19	X20	Y20	Z20	X21	Y21	Z21	X22	Y22	Z22	X23	Y23	Z23	X24	Y24	Z24	X25	Y25	Z25	X26	Y26	Z26	X27	Y27	Z27	X28	Y28	Z28	X29	Y29	Z29	X30	Y30	Z30	X31	Y31	Z31	X32	Y32	Z32	X33	Y33	Z33	X34	Y34	Z34	X35	Y35	Z35	X36	Y36	Z36	X37	Y37	Z37	X38	Y38	Z38	X39	Y39	Z39	X40	Y40	Z40	X41	Y41	Z41	X42	Y42	Z42	X43	Y43	Z43	X44	Y44	Z44	X45	Y45	Z45	X46	Y46	Z46	X47	Y47	Z47	X48	Y48	Z48	X49	Y49	Z49	X50	Y50	Z50	X51	Y51	Z51	

18	0.17000000	162.93815	543.14343	-122.22397	201.66009	416.82095	-141.81661	107.23387	93.26586	-172.43534	45.39104	65.41389	-227.82478	234.28033	36.02590	-115.87232	278.82390	60.14817	-183.32967	13.63554	509.42667	-472.81000	-21.30054	404.00044	-453.43426	-345.62175	278.54600	-423.88303	-381.44322	334.43592	-368.50033	-383.32508	119.08756	-433.11857	-345.52722	102.62658	-368.10097	204.03642	306.10284	-169.89251	139.90095	403.09163	-97.54580	148.42227	286.78274	-109.38091	-74.03635	468.82181	-489.69692	-157.69796	380.59154	-493.99493	194.89047	792.55579	-120.57439	220.46247	685.01840	-142.06416	200.81084	645.68922	-90.44392	112.29034	755.53059	-51.49786	145.98388	646.72254	-78.38934	83.74609	758.52719	-475.00488	102.88811	621.99228	-479.93184	-25.71573	740.62101	-485.52010	-7.74799	603.87724	-484.93374	97.22691	1032.72484	-128.80326	-113.66714	1053.73801	-203.46498	85.74465	1007.91203	-391.63185	-119.21757	1048.68560	-300.87583	-55.86979	1552.18301	-240.32731	5.65254	1468.86332	-55.50635	30.75067	1514.98133	-416.14642	85.07998	1474.65929	-212.30451	85.13160	1476.03420	-259.64089	1.34399	1295.33204	7.32605	-82.67960	1081.85163	-56.78530	-69.25300	1099.56179	23.29015	22.74101	951.03140	34.33256	52.97440	831.60835	39.28484	18.02013	821.84424	62.81132	36.46108	1345.18447	-506.89082	-52.44023	1135.42589	-480.52268	-10.10673	1151.90862	-548.80973	90.54872	1018.47790	-516.31096	131.40373	906.81983	-533.25093	104.30298	902.11679	-573.72126	15.34251	948.13071	-152.02940	7.58956	919.01255	-363.27422	26.25677	943.23677	-157.71103	16.32604	934.19494	-331.58639	
19	0.18000000	168.41547	542.94324	-121.78353	205.54347	416.13034	-141.47983	107.56675	93.61199	-172.53463	45.57974	65.86375	-227.77218	234.28895	36.01633	-115.83703	278.94444	59.95078	-183.31043	41.11909	513.34649	-473.65027	7.16537	407.90699	-453.70780	-318.09461	284.76959	-423.09142	-354.65031	339.68307	-367.56489	-353.55480	125.00195	-433.07771	-315.54361	108.69970	-368.17113	206.62354	305.45551	-169.67483	143.55976	403.04982	-97.33401	150.77105	286.65897	-109.20853	-45.26881	472.73937	-490.41987	-129.43557	384.90569	-494.17691	204.71546	791.94295	-119.74320	228.47518	683.87505	-141.47091	208.17299	644.83962	-89.86555	121.57504	756.03994	-50.54867	153.60317	646.92976	-77.69719	102.60343	763.40851	-474.96846	125.87942	627.58351	-480.43526	-5.99126	742.48902	-484.43552	15.74872	606.48756	-484.61204	110.57011	1034.38351	-128.10781	-100.96915	1056.15954	-200.97969	97.58433	1010.73410	-391.13103	-107.15288	1050.43644	-298.00411	-42.63793	1554.68034	-238.74150	20.29377	1471.16837	-54.40701	42.48404	1517.06807	-415.32738	98.36109	1476.81300	-211.88067	97.89019	1478.17251	-259.25308	17.31745	1297.65701	8.45559	-66.87636	1083.78853	-54.12682	-52.20168	1101.60939	25.75524	41.06870	953.67029	35.27454	72.17503	834.56300	39.91651	37.62962	824.44346	63.80805	47.32983	1347.01879	-505.75089	-42.58097	1138.06367	-478.93304	-0.34955	1154.29783	-547.33703	96.69020	1017.89986	-517.89373	133.45186	904.85616	-536.78559	106.05798	901.96267	-577.19888	28.71604	949.96928	-150.90393	19.35643	921.56016	-362.18511	38.97097	946.57450	-156.06321	27.87208	936.30532	-329.92664	
20	0.19000000	173.36807	542.78597	-121.18120	209.05518	415.54493	-141.00696	107.87235	93.98408	-172.56131	45.74732	66.34249	-227.66409	234.28724	35.97332	-115.76359	279.03322	59.76037	-183.23813	68.17257	518.00111	-474.26524	35.40231	412.50149	-453.89022	-290.15014	289.90714	-422.05327	-328.43292	343.29316	-366.58190	-321.09310	129.45513	-432.90376	-282.95391	113.88848	-367.90105	208.98662	304.94655	-169.33111	146.87183	403.06910	-97.02477	152.88995	286.61651	-108.94333	-17.05242	477.22820	-490.72866	-101.37006	389.47773	-494.04570	214.12023	791.23558	-118.68131	236.01666	682.64004	-140.60463	214.98631	643.94581	-89.05829	130.35645	756.51930	-49.55074	160.51188	647.07169	-76.96520	121.07469	768.71951	-474.82473	148.59578	633.81254	-480.67312	13.49489	744.91125	-483.45821	39.09817	609.70065	-484.27334	123.73091	1036.22599	-127.30109	-88.44062	1058.71015	-198.77412	109.50791	1013.87559	-390.72645	-95.09290	1052.63418	-295.54177	-29.51730	1557.27203	-237.28024	34.86537	1473.68301	-53.44465	54.02174	1519.25606	-414.63537	111.51322	1479.05363	-211.61179	110.57852	1480.38859	-258.99101	33.32727	1300.22303	9.43645	-50.90635	1085.91025	-51.46751	-35.06567	1103.91501	28.17824	59.49201	956.54120	36.09882	91.47890	837.80097	40.43107	57.38235	827.34889	64.80919	57.83129	1348.96197	-504.77222	-32.92416	1140.75400	-477.27871	8.93787	1156.80115	-545.94029	102.54937	1017.78365	-519.54485	135.43411	903.60367	-540.41054	107.77397	902.47665	-580.72328	41.84057	951.98551	-149.98503	31.18573	924.46449	-361.32676	51.57857	949.67097	-154.71734	39.60774	938.74419	-328.72699	
21	0.20000000	177.83032	542.67825	-120.44077	212.23363	415.08271	-140.44986	108.15182	94.38782	-172.53571	45.85902	66.82436	-227.49468	234.27848	35.90811	-115.66526	279.09946	59.56651	-183.12900	94.77975	523.22676	-474.64261	63.39438	417.63013	-453.95267	-261.75733	293.72115	-420.84568	-302.38538	345.29723	-365.60085	-286.69792	132.42459	-432.54685	-248.45321	118.00107	-367.33049	211.13957	304.57432	-168.90392	149.86446	403.16256	-96.65435	154.80031	286.66748	-108.61047	10.58826	482.10209	-490.65414	-73.46081	394.06801	-493.62905	223.15212	790.41835	-117.46272	243.06664	681.28864	-139.53379	221.29421	643.01944	-88.08210	138.72402	757.00262	-48.53569	166.72508	647.14286	-76.23275	139.22696	774.41315	-474.53770	171.08930	640.60952	-480.63192	32.72714	747.85122	-482.63660	62.35422	613.42546	-484.02191	136.68718	1038.24821	-126.33719	-76.04531	1061.35399	-196.79542	121.54236	1017.26598	-390.26560	-83.03086	1055.25983	-293.47975	-16.51509	1559.93248	-235.93665	49.36225	1476.39990	-52.60874	65.38752	1521.55179	-414.04288	124.53260	1481.38808	-211.47326	123.20012	1482.68764	-258.83458	49.34231	1303.02846	10.29145	-34.81904	1088.23057	-48.83986	-17.87866	1106.46829	30.52802	77.97767	959.65912	36.82984	110.88797	841.32609	40.85067	77.26455	830.56312	65.80371	67.98133	1351.02730	-503.95967	-23.47558	1143.49653	-475.55417	17.68979	1159.43344	-544.63398	108.15872	1018.14727	-521.25269	137.41715	903.08773	-544.04691	109.49411	903.63088	-584.21195	54.70174	954.17104	-149.17831	43.10495	927.66669	-360.60323	64.12243	952.48390	-153.60503	51.53262	941.50690	-327.85722	
22	0.21000000	181.84526	542.64519	-119.62171	215.10490	414.76448	-139.85277	108.40225	94.83017	-172.48289	45.89577	67.28537	-227.27349	234.26710	35.83267	-115.55700	279.15409	59.36698	-182.99912	120.92687	528.86174	-474.77303	91.14050	423.11168	-453.85497	-232.90358	296.03818	-419.53846	-276.10940	345.72379	-364.59889	-251.09135	133.95111	-431.97431	-212.67336	120.92329	-366.53655	213.07838	304.33525	-168.42630	152.54404	403.34770	-96.26024	156.49941	286.82647	-108.23577	37.65446	487.11805	-490.26221	-45.64830	398.38140	-492.98540	231.86252	789.50664	-116.18906	249.64976	679.84117	-138.36651	227.16179	642.09508	-87.02990	146.77485	757.52693	-47.54279	172.31979	647.16372	-75.54330	157.14620	780.45557	-474.07500	193.39147	647.89729	-480.29491	51.72899	751.25364	-482.01969	85.54117	617.59176	-483.92455	149.37889	1040.40784	-125.19728	-63.75506	1064.04255	-194.99524	133.66771	1020.81905	-389.61177	-70.97691	1058.23198	-291.77342	-3.63021	1562.63345	-234.70144	63.78229	1479.29553	-51.88712	76.60665	1523.94201	-413.52596	137.42210	1483.81704	-211.44079	135.75478	1485.06413	-258.76675	65.32710	1306.05222	11.04726	-18.67405	1090.74584	-46.27749	-0.65964	1109.23181	32.77599	96.49568	963.02250	37.50114	130.37580	845.11046	41.20774	97.25756	834.06272	66.77918	77.79950	1353.21440	-503.32062	-14.25761	1146.28825	-473.79432	25.87143	1162.19788	-543.44690	113.56960	1018.98576	-523.01237	139.47352	903.29210	-547.61580	111.27405	905.36968	-587.59111	67.27483	956.48403	-148.39753	55.10693	931.07838	-359.92625	76.59623	955.02502	-152.63755	63.57940	944.55147	-327.14946	
23	0.22000000	185.45805	542.71680	-118.79461	217.68338	414.60232	-139.24369	108.62153	95.31426	-172.42671	45.86187	67.71242	-227.02444	234.25746	35.75755	-115.45192	279.20996	59.16661	-182.86246	146.58947	534.76054	-474.65528	118.63665	428.76417	-453.55990	-203.60101	296.78665	-418.18356	-249.31363	344.59860	-363.51109	-214.81204	134.11806	-431.18796	-176.06879	122.62919	-365.61304	214.79668	304.22321	-167.91799	154.90832	403.63818	-95.87128	157.97443	287.10188	-107.84229	64.16048	492.02913	-489.63714	-17.88776	402.14707	-492.18112	240.30639	788.53590	-114.96008	255.85210	678.35641	-137.21290	232.66682	641.21497	-85.99901	154.59352	758.11773	-46.60489	177.42905	647.17564	-74.92723	174.89990	786.80918	-473.42248	215.49354	655.58546	-479.65024	70.54509	755.02415	-481.64794	108.63951	622.13757	-484.00260	161.73837	1042.63936	-123.88428	-51.55173	1066.72215	-193.34724	145.82966	1024.44322	-388.67260	-58.94802	1061.42565	-290.36160	9.14622	1565.34307	-233.56512	78.12286	1482.33242	-51.26643	87.71075	1526.39333	-413.06426	150.19331	1486.32958	-211.49112	148.23999	1487.49802	-258.77181	81.24645	1309.25686	11.73107	-2.51834	1093.43049	-43.80976	16.58123	1112.14950	34.90180	115.01936	966.60957	38.14830	149.90303	849.10587	41.53683	117.33536	837.80175	67.72439	87.30177	1355.51090	-502.86417	-5.31179	1149.13070	-472.06645	33.48409	1165.08613	-542.41649	118.83557	1020.26948	-524.82047	141.67431	904.15720	-551.04832	113.17743	907.60951	-590.80222	79.53734	958.86189	-147.58027	67.16293	934.59499	-359.23029	88.95865	957.34481	-151.72143	75.64646	947.80150	-326.43910	
